<?xml version="1.0" encoding="UTF-8"?>
<svg xmlns="http://www.w3.org/2000/svg" viewBox="0 0 1200 630" width="1200" height="630">
  <defs>
    <linearGradient id="g11571" x1="85.96699001693256%" y1="15.26708147705014%" x2="14.033009983067437%" y2="84.73291852294986%">
      <stop offset="0%" stop-color="#D97706"/>
      <stop offset="100%" stop-color="#B45309"/>
    </linearGradient>
  </defs>
  <rect width="1200" height="630" fill="url(#g11571)"/>
  <polygon points="499.40924413502216,210.97326590679586 569.4092441350222,170.97326590679586 639.4092441350222,210.97326590679586 569.4092441350222,250.97326590679586" fill="rgba(255,255,255,0.08)" stroke="rgba(255,255,255,0.15)" stroke-width="2"/><line x1="629.4092441350222" y1="215.97326590679586" x2="629.4092441350222" y2="270.97326590679586" stroke="rgba(255,255,255,0.12)" stroke-width="2"/><path d="M 767.7471820265055 354.53220093622804 C 737.7471820265055 344.53220093622804 687.7471820265055 349.53220093622804 677.7471820265055 284.53220093622804 L 767.7471820265055 294.53220093622804 L 857.7471820265055 284.53220093622804 C 847.7471820265055 349.53220093622804 797.7471820265055 344.53220093622804 767.7471820265055 354.53220093622804 Z" fill="rgba(255,255,255,0.06)" stroke="rgba(255,255,255,0.12)" stroke-width="1.5"/><line x1="767.7471820265055" y1="354.53220093622804" x2="767.7471820265055" y2="294.53220093622804" stroke="rgba(255,255,255,0.12)" stroke-width="1.5"/><rect x="249.27940119523555" y="381.5816060267389" width="8" height="100" rx="1" fill="rgba(255,255,255,0.1)" transform="rotate(48.93810682464391 249.27940119523555 381.5816060267389)"/><circle cx="1026.6477297060192" cy="182.90673907846212" r="30" fill="none" stroke="rgba(255,255,255,0.12)" stroke-width="2"/><line x1="1016.6477297060192" y1="212.90673907846212" x2="1036.6477297060192" y2="212.90673907846212" stroke="rgba(255,255,255,0.1)" stroke-width="2"/><line x1="1018.6477297060192" y1="219.90673907846212" x2="1034.6477297060192" y2="219.90673907846212" stroke="rgba(255,255,255,0.1)" stroke-width="2"/><circle cx="818.9730869373307" cy="110.36782517563552" r="5.882463618181646" fill="rgba(255,255,255,0.09375205118209123)"/><circle cx="851.2813453562558" cy="156.6850488865748" r="2.1356384474784136" fill="rgba(255,255,255,0.11178926205262543)"/><circle cx="264.4792272010818" cy="58.76868169289082" r="5.8256033435463905" fill="rgba(255,255,255,0.08774876141920686)"/><circle cx="385.6909580528736" cy="366.8051119358279" r="2.135679503902793" fill="rgba(255,255,255,0.045188789367675786)"/><circle cx="312.6613584347069" cy="282.3016033950262" r="5.318254131823778" fill="rgba(255,255,255,0.07019059296697377)"/><circle cx="757.0142769021913" cy="278.9262030343525" r="4.250426162965596" fill="rgba(255,255,255,0.05569542564451695)"/><circle cx="1120.4833420692012" cy="282.00903709512204" r="4.172159745357931" fill="rgba(255,255,255,0.07053986011072994)"/><circle cx="621.9705746043473" cy="181.1846399330534" r="5.633879118598998" fill="rgba(255,255,255,0.04402101919054985)"/><circle cx="581.0797698795795" cy="358.4609774197452" r="2.6853645853698254" fill="rgba(255,255,255,0.04615565875545144)"/><circle cx="260.6974373338744" cy="50.528915028553456" r="4.8733030976727605" fill="rgba(255,255,255,0.11028777776286006)"/><circle cx="349.02631789445877" cy="284.6260697976686" r="2.1337032224982977" fill="rgba(255,255,255,0.08058598088100552)"/><circle cx="1005.0798477837816" cy="483.91841743607074" r="5.377127073705196" fill="rgba(255,255,255,0.06491875926032663)"/><circle cx="432.48121885117143" cy="265.2869344316423" r="2.2186345951631665" fill="rgba(255,255,255,0.10581448690965772)"/><circle cx="324.58617659285665" cy="341.40714627923444" r="3.1474989177659154" fill="rgba(255,255,255,0.04214241424575448)"/><circle cx="481.53452137485147" cy="250.42058592429385" r="3.426703837700188" fill="rgba(255,255,255,0.10692378599196672)"/>
  <circle cx="670.1985206454992" cy="52.116969062481076" r="2.0280955680646002" fill="rgba(255,255,255,0.030648485647980124)"/><circle cx="45.622841734439135" cy="485.9943180042319" r="2.452198542188853" fill="rgba(255,255,255,0.06401977807516232)"/><circle cx="142.0245811343193" cy="464.87133073154837" r="1.6907259062863886" fill="rgba(255,255,255,0.06692187890410423)"/><circle cx="710.9785437583923" cy="484.91877146763727" r="1.0037583438679576" fill="rgba(255,255,255,0.03125952006783336)"/><circle cx="670.5414067022502" cy="246.28676410764456" r="1.837569353170693" fill="rgba(255,255,255,0.0756574848270975)"/><circle cx="841.395381744951" cy="623.1770963058807" r="2.312391633167863" fill="rgba(255,255,255,0.058439327806700025)"/><circle cx="1024.3914420716465" cy="475.78919475898147" r="1.2022495409473777" fill="rgba(255,255,255,0.038668453514110294)"/><circle cx="424.9820211902261" cy="196.62085342453793" r="2.6828952142968774" fill="rgba(255,255,255,0.0784607893275097)"/><circle cx="514.2265981994569" cy="95.19360749982297" r="2.3089733975939453" fill="rgba(255,255,255,0.031852455374319105)"/><circle cx="845.423799008131" cy="109.98041136888787" r="2.1034182710573077" fill="rgba(255,255,255,0.03526211275719106)"/><circle cx="128.45101011916995" cy="80.21387005224824" r="1.810356537811458" fill="rgba(255,255,255,0.05489084609551355)"/><circle cx="547.0150105655193" cy="535.7129239314236" r="1.0495798829942942" fill="rgba(255,255,255,0.054090083583723754)"/><circle cx="1177.7564954012632" cy="561.2115498958156" r="1.614914822857827" fill="rgba(255,255,255,0.04209627091884613)"/><circle cx="408.3269029855728" cy="412.7227982087061" r="2.894233754836023" fill="rgba(255,255,255,0.07828946844208987)"/><circle cx="87.10834393277764" cy="195.36275423364714" r="2.468198429327458" fill="rgba(255,255,255,0.07403310359921306)"/><circle cx="976.962551381439" cy="578.3307130797766" r="2.7974287988618016" fill="rgba(255,255,255,0.03716026882873848)"/><circle cx="296.44537987187505" cy="16.442041948903352" r="1.367276641074568" fill="rgba(255,255,255,0.07125272234668956)"/><circle cx="294.0972223877907" cy="295.4393523093313" r="2.0769509095698595" fill="rgba(255,255,255,0.06902292985003441)"/><circle cx="453.1569505110383" cy="617.8722825343721" r="1.0704757189378142" fill="rgba(255,255,255,0.049240991177503024)"/><circle cx="488.84335001930594" cy="455.08611015742645" r="2.3603796740062535" fill="rgba(255,255,255,0.05486724409973249)"/>
  <text x="600" y="335" font-family="system-ui, -apple-system, 'Segoe UI', sans-serif" font-size="68" font-weight="700" fill="rgba(0,0,0,0.15)" text-anchor="middle" letter-spacing="1">DSE Hong Kong</text>
  <text x="600" y="332" font-family="system-ui, -apple-system, 'Segoe UI', sans-serif" font-size="68" font-weight="700" fill="white" text-anchor="middle" letter-spacing="1">DSE Hong Kong</text>
  <g transform="translate(1140, 575)">
    <rect x="0" y="0" width="40" height="40" rx="8" fill="rgba(255,255,255,0.15)"/>
    <text x="20" y="29" font-family="sans-serif" font-weight="bold" font-size="24" fill="rgba(255,255,255,0.6)" text-anchor="middle">K</text>
  </g>
</svg>